# xmcd
#
# Track frame offsets:
#	150
#	15652
#	26619
#	40827
#	53855
#	68077
#	79625
#	92087
#	103805
#	118292
#	131527
#	142350
#
# Disc length: 2059 seconds
#
# Revision: 1
# Processed by: cddbd v1.5.2PL0 Copyright (c) Steve Scherf et al.
# Submitted via: audiograbber 1.83.01
#
DISCID=a708090c
DTITLE=Jimmy Martin - Got it Made In The Shade If A tree Don't Fall
DYEAR=1900
DGENRE=Bluegrass
TTITLE0=Got It Made In The Shade If A Tree Don't Fall
TTITLE1=If Tear Drops Were Pennies
TTITLE2=Don't Let Me Cross Over
TTITLE3=Rose Of Old Kentucky
TTITLE4=If We Nevermeet Again This Side Of Heaven
TTITLE5=Darlin Cory
TTITLE6=Sunny Side Of The Mountain
TTITLE7=My Little Woman Love the Devil Out Of Me
TTITLE8=Free Born Man
TTITLE9=Mansion On The Hill
TTITLE10=Frauline (Featuring David Nace)
TTITLE11=Will The Circle Be Unbroken
EXTD=
EXTT0=
EXTT1=
EXTT2=
EXTT3=
EXTT4=
EXTT5=
EXTT6=
EXTT7=
EXTT8=
EXTT9=
EXTT10=
EXTT11=
PLAYORDER=
